<svg width="39" height="13" viewBox="0 0 39 13" fill="none" xmlns="http://www.w3.org/2000/svg">
<path d="M35.8699 4.49515C33.0098 2.66814 29.857 1.32625 26.5417 0.520326C25.6827 0.31037 24.8102 0.136928 23.9309 0C23.7724 0.47338 23.6003 0.942847 23.416 1.4084C23.1247 2.13868 22.7982 2.85593 22.4378 3.56013C22.0043 4.41299 21.5179 5.24891 20.9881 6.05482C20.3974 6.95072 19.7498 7.81663 19.0453 8.64733C18.3407 7.81663 17.6931 6.95072 17.1024 6.05482C16.5713 5.24891 16.0862 4.41299 15.6513 3.56013C15.2923 2.85593 14.9658 2.13868 14.6758 1.4084C14.4902 0.942847 14.3195 0.47338 14.161 0C13.2817 0.136928 12.4105 0.31037 11.5502 0.520326C8.23483 1.32494 5.08072 2.66553 2.22197 4.49254C1.45918 4.97896 0.716721 5.50059 0 6.05613C0.716721 6.61167 1.45918 7.13199 2.22197 7.61841C5.08208 9.44281 8.23483 10.7847 11.5502 11.5906C12.4092 11.8006 13.2817 11.974 14.161 12.111C14.7883 12.2088 15.4197 12.2883 16.0564 12.3483C15.6771 11.9297 15.3167 11.5111 14.9807 11.0964C14.8736 10.966 14.7734 10.8356 14.6772 10.7039C14.3859 10.3035 14.1461 9.89924 13.9442 9.49367C13.4416 9.40369 12.9457 9.30197 12.4512 9.18591C9.68318 8.53909 7.03443 7.48279 4.59975 6.05482C7.03443 4.62817 9.68182 3.57186 12.4512 2.92504C12.5582 3.18455 12.6734 3.44146 12.7926 3.69706C13.1638 4.49906 13.5743 5.28672 14.0214 6.05482C14.52 6.9116 15.0633 7.74491 15.654 8.55343C15.9738 8.99421 16.3084 9.42717 16.6566 9.84969C17.1024 10.3987 17.5739 10.9321 18.0643 11.4498L19.0466 12.4891L20.0302 11.4498C20.5207 10.9308 20.9935 10.3987 21.4379 9.84969C21.7848 9.42456 22.1194 8.99421 22.4378 8.55343C23.0285 7.74491 23.5746 6.9116 24.0704 6.05613C24.5487 5.23717 24.9822 4.39865 25.3711 3.54057C25.4632 3.33583 25.554 3.12978 25.6407 2.92374C28.41 3.57056 31.0574 4.62686 33.4935 6.05352C31.0588 7.48279 28.4114 8.53778 25.6421 9.18461C25.1394 9.30328 24.6354 9.4076 24.126 9.49759C23.9282 9.91228 23.6924 10.3165 23.4147 10.7039C23.3171 10.8382 23.2142 10.9738 23.1071 11.1042C22.7752 11.5124 22.4161 11.9284 22.0354 12.347C22.6722 12.2883 23.3036 12.2088 23.9309 12.1096C24.8102 11.9727 25.6814 11.7993 26.5417 11.5893C29.8584 10.7847 33.0111 9.44412 35.8713 7.6145C36.6327 7.13069 37.3738 6.61036 38.0919 6.05482C37.3751 5.49929 36.6327 4.97896 35.8699 4.49254V4.49515Z" fill="white"/>
</svg>
